<svg width="20" height="20" viewBox="0 0 24 24" fill="black" xmlns="http://www.w3.org/2000/svg">
  <path d="M12 2C6.5 2 2 6.5 2 12c0 4.4 2.9 8.2 6.8 9.5.5.1.7-.2.7-.5v-1.8c-2.8.6-3.4-1.3-3.4-1.3-.5-1.1-1.1-1.4-1.1-1.4-.9-.6.1-.6.1-.6 1 .1 1.6 1 1.6 1 .9 1.6 2.5 1.1 3.1.8.1-.7.4-1.1.7-1.4-2.2-.3-4.6-1.1-4.6-4.9 0-1.1.4-2 1-2.7-.1-.3-.4-1.3.1-2.6 0 0 .8-.3 2.7 1a9.3 9.3 0 015 0c1.9-1.3 2.7-1 2.7-1 .5 1.3.2 2.3.1 2.6.6.7 1 1.6 1 2.7 0 3.8-2.4 4.6-4.6 4.9.4.3.8 1 .8 2.1v3.1c0 .3.2.6.7.5A10 10 0 0022 12c0-5.5-4.5-10-10-10z"/>
</svg>
