<svg viewBox="0 0 48 48" width="20" height="20" xmlns="http://www.w3.org/2000/svg">
  <path fill="#EA4335" d="M24 9.5c3.1 0 5.8 1.1 7.9 3.1l5.9-5.9C34.1 3.2 29.4 1 24 1 14.8 1 6.9 6.6 3.1 14.6l6.9 5.4C12 13.7 17.6 9.5 24 9.5z"/>
  <path fill="#4285F4" d="M46.1 24.5c0-1.6-.1-2.8-.4-4.1H24v7.8h12.7c-.6 3-2.4 5.5-5.1 7.2l7.9 6.1c4.6-4.2 7.6-10.4 7.6-17z"/>
  <path fill="#FBBC05" d="M10 28.1c-.6-1.7-1-3.5-1-5.6s.4-3.9 1-5.6l-6.9-5.4C1.1 15.7 0 19.7 0 24s1.1 8.3 3.1 12l6.9-5.4z"/>
  <path fill="#34A853" d="M24 48c6.5 0 12-2.1 16-5.7l-7.9-6.1c-2.2 1.5-5 2.4-8.1 2.4-6.4 0-12-4.2-14-10l-6.9 5.4C6.9 41.4 14.8 48 24 48z"/>
</svg>
